<svg style="position: absolute; width: 0; height: 0; overflow: hidden;" version="1.1" xmlns="http://www.w3.org/2000/svg" xmlns:xlink="http://www.w3.org/1999/xlink">
<defs>
<symbol id="lookup-icon" viewBox="0 0 15 15" fill="none">
<title>Search</title>
<path d="M2.77344 8.08594C3.5026 8.8151 4.38802 9.17969 5.42969 9.17969C6.47135 9.17969 7.35677 8.8151 8.08594 8.08594C8.8151 7.35677 9.17969 6.47135 9.17969 5.42969C9.17969 4.38802 8.8151 3.5026 8.08594 2.77344C7.35677 2.04427 6.47135 1.67969 5.42969 1.67969C4.38802 1.67969 3.5026 2.04427 2.77344 2.77344C2.04427 3.5026 1.67969 4.38802 1.67969 5.42969C1.67969 6.47135 2.04427 7.35677 2.77344 8.08594ZM10.4297 9.17969L14.5703 13.3203L13.3203 14.5703L9.17969 10.4297V9.76562L8.94531 9.53125C7.95573 10.3906 6.78385 10.8203 5.42969 10.8203C3.91927 10.8203 2.63021 10.2995 1.5625 9.25781C0.520833 8.21615 0 6.9401 0 5.42969C0 3.91927 0.520833 2.64323 1.5625 1.60156C2.63021 0.533854 3.91927 0 5.42969 0C6.9401 0 8.21615 0.533854 9.25781 1.60156C10.2995 2.64323 10.8203 3.91927 10.8203 5.42969C10.8203 5.97656 10.6901 6.60156 10.4297 7.30469C10.1693 7.98177 9.86979 8.52865 9.53125 8.94531L9.76562 9.17969H10.4297Z" fill="#1976D2"/>
</symbol>
<symbol id="liked-icon" viewBox="0 0 17 16" fill="none">
<title>Liked</title>
<path d="M8.5 15.2734L7.28906 14.1797C5.90885 12.9297 4.90625 12.0052 4.28125 11.4062C3.65625 10.8073 2.95312 10.0651 2.17188 9.17969C1.41667 8.29427 0.895833 7.5 0.609375 6.79688C0.322917 6.06771 0.179688 5.32552 0.179688 4.57031C0.179688 3.29427 0.609375 2.21354 1.46875 1.32812C2.35417 0.442708 3.44792 0 4.75 0C6.26042 0 7.51042 0.585938 8.5 1.75781C9.48958 0.585938 10.7396 0 12.25 0C13.5521 0 14.6328 0.442708 15.4922 1.32812C16.3776 2.21354 16.8203 3.29427 16.8203 4.57031C16.8203 5.58594 16.4818 6.64062 15.8047 7.73438C15.1276 8.82812 14.3854 9.77865 13.5781 10.5859C12.7969 11.3932 11.5078 12.6042 9.71094 14.2188L8.5 15.2734Z" fill="black" fill-opacity="0.6"/>
</symbol>
<symbol id="following-icon" viewBox="0 0 17 16" fill="none">
<title>Following</title>
<path d="M8 14.2188L7.03125 13.3438C5.92708 12.3438 5.125 11.6042 4.625 11.125C4.125 10.6458 3.5625 10.0521 2.9375 9.34375C2.33333 8.63542 1.91667 8 1.6875 7.4375C1.45833 6.85417 1.34375 6.26042 1.34375 5.65625C1.34375 4.63542 1.6875 3.77083 2.375 3.0625C3.08333 2.35417 3.95833 2 5 2C6.20833 2 7.20833 2.46875 8 3.40625C8.79167 2.46875 9.79167 2 11 2C12.0417 2 12.9062 2.35417 13.5938 3.0625C14.3021 3.77083 14.6562 4.63542 14.6562 5.65625C14.6562 6.46875 14.3854 7.3125 13.8438 8.1875C13.3021 9.0625 12.7083 9.82292 12.0625 10.4688C11.4375 11.1146 10.4062 12.0833 8.96875 13.375L8 14.2188Z" fill="#F44336"/>
</symbol>
<symbol id="unfollowing-icon" viewBox="0 0 17 16" fill="none">
<title>Unfollowing</title>
<svg width="14" height="13" viewBox="0 0 14 13" fill="none" xmlns="http://www.w3.org/2000/svg">
<path d="M7.0625 10.375C8.0625 9.47917 8.80208 8.80208 9.28125 8.34375C9.76042 7.88542 10.2812 7.34375 10.8438 6.71875C11.4062 6.09375 11.7917 5.54167 12 5.0625C12.2292 4.58333 12.3438 4.11458 12.3438 3.65625C12.3438 2.98958 12.1146 2.4375 11.6562 2C11.2188 1.5625 10.6667 1.34375 10 1.34375C9.47917 1.34375 8.98958 1.48958 8.53125 1.78125C8.09375 2.07292 7.79167 2.44792 7.625 2.90625H6.375C6.20833 2.44792 5.89583 2.07292 5.4375 1.78125C5 1.48958 4.52083 1.34375 4 1.34375C3.33333 1.34375 2.77083 1.5625 2.3125 2C1.875 2.4375 1.65625 2.98958 1.65625 3.65625C1.65625 4.11458 1.76042 4.58333 1.96875 5.0625C2.19792 5.54167 2.59375 6.09375 3.15625 6.71875C3.71875 7.34375 4.23958 7.88542 4.71875 8.34375C5.19792 8.80208 5.9375 9.47917 6.9375 10.375L7 10.4375L7.0625 10.375ZM10 0C11.0417 0 11.9062 0.354167 12.5938 1.0625C13.3021 1.77083 13.6562 2.63542 13.6562 3.65625C13.6562 4.26042 13.5417 4.85417 13.3125 5.4375C13.0833 6 12.6562 6.63542 12.0312 7.34375C11.4271 8.05208 10.875 8.64583 10.375 9.125C9.875 9.60417 9.07292 10.3438 7.96875 11.3438L7 12.2188L6.03125 11.375C4.59375 10.0833 3.55208 9.11458 2.90625 8.46875C2.28125 7.82292 1.69792 7.0625 1.15625 6.1875C0.614583 5.3125 0.34375 4.46875 0.34375 3.65625C0.34375 2.63542 0.6875 1.77083 1.375 1.0625C2.08333 0.354167 2.95833 0 4 0C5.20833 0 6.20833 0.46875 7 1.40625C7.79167 0.46875 8.79167 0 10 0Z" fill="#F44336"/>
</svg>
</symbol>
<symbol id="clear-icon" viewBox="0 0 17 16" fill="none">
<title>Clear</title>
<svg width="20" height="20" viewBox="0 0 20 20" fill="none" xmlns="http://www.w3.org/2000/svg">
<path d="M13.1797 12.0078L10.1719 9L13.1797 5.99219L12.0078 4.82031L9 7.82812L5.99219 4.82031L4.82031 5.99219L7.82812 9L4.82031 12.0078L5.99219 13.1797L9 10.1719L12.0078 13.1797L13.1797 12.0078ZM3.10156 3.14062C4.74219 1.5 6.70833 0.679688 9 0.679688C11.2917 0.679688 13.2448 1.5 14.8594 3.14062C16.5 4.75521 17.3203 6.70833 17.3203 9C17.3203 11.2917 16.5 13.2578 14.8594 14.8984C13.2448 16.513 11.2917 17.3203 9 17.3203C6.70833 17.3203 4.74219 16.513 3.10156 14.8984C1.48698 13.2578 0.679688 11.2917 0.679688 9C0.679688 6.70833 1.48698 4.75521 3.10156 3.14062Z" fill="black" fill-opacity="0.38"/>
</svg>
</symbol>
</defs>
</svg>