<svg style="position: absolute; width: 0; height: 0; overflow: hidden;" version="1.1" xmlns="http://www.w3.org/2000/svg" xmlns:xlink="http://www.w3.org/1999/xlink">
<defs>
<symbol id="lookup-icon" viewBox="0 0 15 15" fill="none">
<title>Search</title>
<path d="M2.77344 8.08594C3.5026 8.8151 4.38802 9.17969 5.42969 9.17969C6.47135 9.17969 7.35677 8.8151 8.08594 8.08594C8.8151 7.35677 9.17969 6.47135 9.17969 5.42969C9.17969 4.38802 8.8151 3.5026 8.08594 2.77344C7.35677 2.04427 6.47135 1.67969 5.42969 1.67969C4.38802 1.67969 3.5026 2.04427 2.77344 2.77344C2.04427 3.5026 1.67969 4.38802 1.67969 5.42969C1.67969 6.47135 2.04427 7.35677 2.77344 8.08594ZM10.4297 9.17969L14.5703 13.3203L13.3203 14.5703L9.17969 10.4297V9.76562L8.94531 9.53125C7.95573 10.3906 6.78385 10.8203 5.42969 10.8203C3.91927 10.8203 2.63021 10.2995 1.5625 9.25781C0.520833 8.21615 0 6.9401 0 5.42969C0 3.91927 0.520833 2.64323 1.5625 1.60156C2.63021 0.533854 3.91927 0 5.42969 0C6.9401 0 8.21615 0.533854 9.25781 1.60156C10.2995 2.64323 10.8203 3.91927 10.8203 5.42969C10.8203 5.97656 10.6901 6.60156 10.4297 7.30469C10.1693 7.98177 9.86979 8.52865 9.53125 8.94531L9.76562 9.17969H10.4297Z" fill="#1976D2"/>
</symbol>
<symbol id="liked-icon" viewBox="0 0 17 16" fill="none">
<title>Liked</title>
<path d="M8.5 15.2734L7.28906 14.1797C5.90885 12.9297 4.90625 12.0052 4.28125 11.4062C3.65625 10.8073 2.95312 10.0651 2.17188 9.17969C1.41667 8.29427 0.895833 7.5 0.609375 6.79688C0.322917 6.06771 0.179688 5.32552 0.179688 4.57031C0.179688 3.29427 0.609375 2.21354 1.46875 1.32812C2.35417 0.442708 3.44792 0 4.75 0C6.26042 0 7.51042 0.585938 8.5 1.75781C9.48958 0.585938 10.7396 0 12.25 0C13.5521 0 14.6328 0.442708 15.4922 1.32812C16.3776 2.21354 16.8203 3.29427 16.8203 4.57031C16.8203 5.58594 16.4818 6.64062 15.8047 7.73438C15.1276 8.82812 14.3854 9.77865 13.5781 10.5859C12.7969 11.3932 11.5078 12.6042 9.71094 14.2188L8.5 15.2734Z" fill="black" fill-opacity="0.6"/>
</symbol>
</defs>
</svg>